<svg   id="chart"   width="1000"   height="500"   viewBox="0 0 1000 500"   xmlns="http://www.w3.org/2000/svg" >      <path d="M 0,499.80884629448707 C 10.600000000000001,496.5683158405561 31.8,492.2745397661014 53,483.60619402483235 C 74.2,474.9378482835633 84.8,462.8497001247204 106,456.467117588142 C 127.2,450.0845350515636 137.8,458.2768597570552 159,451.69328134194035 C 180.2,445.1097029268255 190.8,436.4135710250405 212,423.5492255125678 C 233.2,410.68488000009506 243.8,397.8530379446379 265,387.37155377957686 C 286.2,376.8900696145158 296.8,382.90470215424443 318,371.1418046872625 C 339.2,359.37890722028055 349.8,338.8265923660059 371,328.55706644466716 C 392.2,318.2875405233284 402.8,314.976754929317 424,319.7941750805687 C 445.2,324.61159523182044 455.8,346.2135510597669 477,352.6441672009259 C 498.2,359.07478334208486 508.8,355.27239906884074 530,351.94725578636354 C 551.2,348.62211250388634 561.8,338.95540723030587 583,336.0184507885399 C 604.2,333.0814943467739 614.8,339.0479941308324 636,337.2624735775338 C 657.2,335.4769530242352 667.8,334.4971835672227 689,327.09084802204666 C 710.2,319.6845124768706 720.8,327.66200173582706 742,300.23079585165357 C 763.2,272.7995899674801 773.8,217.13930860197178 795,189.93481860117913 C 816.2,162.73032860038649 826.8,188.69964750037735 848,164.2083458476904 C 869.2,139.71704419500344 879.8,75.12092943656191 901,67.47831033774435 C 922.2,59.83569123892679 932.8,120.81317646152495 954,125.99525035360261 C 975.2,131.17732424568027 996.4,99.90999390922667 1007,93.38867979813267,L 1000 500,L 0 500Z" fill="#0000001a" />   <path d="M 0,499.80884629448707 C 10.600000000000001,496.5683158405561 31.8,492.2745397661014 53,483.60619402483235 C 74.2,474.9378482835633 84.8,462.8497001247204 106,456.467117588142 C 127.2,450.0845350515636 137.8,458.2768597570552 159,451.69328134194035 C 180.2,445.1097029268255 190.8,436.4135710250405 212,423.5492255125678 C 233.2,410.68488000009506 243.8,397.8530379446379 265,387.37155377957686 C 286.2,376.8900696145158 296.8,382.90470215424443 318,371.1418046872625 C 339.2,359.37890722028055 349.8,338.8265923660059 371,328.55706644466716 C 392.2,318.2875405233284 402.8,314.976754929317 424,319.7941750805687 C 445.2,324.61159523182044 455.8,346.2135510597669 477,352.6441672009259 C 498.2,359.07478334208486 508.8,355.27239906884074 530,351.94725578636354 C 551.2,348.62211250388634 561.8,338.95540723030587 583,336.0184507885399 C 604.2,333.0814943467739 614.8,339.0479941308324 636,337.2624735775338 C 657.2,335.4769530242352 667.8,334.4971835672227 689,327.09084802204666 C 710.2,319.6845124768706 720.8,327.66200173582706 742,300.23079585165357 C 763.2,272.7995899674801 773.8,217.13930860197178 795,189.93481860117913 C 816.2,162.73032860038649 826.8,188.69964750037735 848,164.2083458476904 C 869.2,139.71704419500344 879.8,75.12092943656191 901,67.47831033774435 C 922.2,59.83569123892679 932.8,120.81317646152495 954,125.99525035360261 C 975.2,131.17732424568027 996.4,99.90999390922667 1007,93.38867979813267" fill="none" stroke="#000000" stroke-width="4px" />   <g>   <circle cx="0" cy="499.80884629448707" r="8" fill="#000000" />,<circle cx="53" cy="483.60619402483235" r="8" fill="#000000" />,<circle cx="106" cy="456.467117588142" r="8" fill="#000000" />,<circle cx="159" cy="451.69328134194035" r="8" fill="#000000" />,<circle cx="212" cy="423.5492255125678" r="8" fill="#000000" />,<circle cx="265" cy="387.37155377957686" r="8" fill="#000000" />,<circle cx="318" cy="371.1418046872625" r="8" fill="#000000" />,<circle cx="371" cy="328.55706644466716" r="8" fill="#000000" />,<circle cx="424" cy="319.7941750805687" r="8" fill="#000000" />,<circle cx="477" cy="352.6441672009259" r="8" fill="#000000" />,<circle cx="530" cy="351.94725578636354" r="8" fill="#000000" />,<circle cx="583" cy="336.0184507885399" r="8" fill="#000000" />,<circle cx="636" cy="337.2624735775338" r="8" fill="#000000" />,<circle cx="689" cy="327.09084802204666" r="8" fill="#000000" />,<circle cx="742" cy="300.23079585165357" r="8" fill="#000000" />,<circle cx="795" cy="189.93481860117913" r="8" fill="#000000" />,<circle cx="848" cy="164.2083458476904" r="8" fill="#000000" />,<circle cx="901" cy="67.47831033774435" r="8" fill="#000000" />,<circle cx="954" cy="125.99525035360261" r="8" fill="#000000" />,<circle cx="1007" cy="93.38867979813267" r="8" fill="#000000" />   </g> </svg>